<svg width="349" height="65" viewBox="0 0 349 65" fill="none" xmlns="http://www.w3.org/2000/svg">
<path d="M29.1786 64.95C23.6686 64.95 18.7602 63.7467 14.4536 61.34C10.1469 58.9333 6.75857 55.3233 4.28857 50.51C1.81857 45.6967 0.583574 39.8067 0.583574 32.84C0.583574 26 1.85024 20.1733 4.38357 15.36C6.98024 10.4833 10.6852 6.77833 15.4986 4.245C20.3119 1.64833 26.0119 0.349998 32.5986 0.349998C40.0086 0.349998 45.9619 1.68 50.4586 4.34C55.0186 7 58.5336 11.2117 61.0036 16.975L42.9536 23.72C42.3202 20.6167 41.1169 18.4317 39.3436 17.165C37.5702 15.835 35.3536 15.17 32.6936 15.17C29.9702 15.17 27.6902 15.835 25.8536 17.165C24.0802 18.4317 22.7502 20.3633 21.8636 22.96C20.9769 25.5567 20.5336 28.7867 20.5336 32.65C20.5336 36.83 21.0086 40.25 21.9586 42.91C22.9719 45.57 24.4919 47.5333 26.5186 48.8C28.5452 50.0033 31.0469 50.605 34.0236 50.605C35.5436 50.605 36.9369 50.4467 38.2036 50.13C39.4702 49.75 40.5786 49.2117 41.5286 48.515C42.5419 47.8183 43.3019 46.9633 43.8086 45.95C44.3152 44.8733 44.5686 43.6383 44.5686 42.245V41.77H32.2186V29.325H60.9086V64H47.8936L46.3736 48.135L49.4136 51.175C48.2736 55.6083 45.9936 59.0283 42.5736 61.435C39.1536 63.7783 34.6886 64.95 29.1786 64.95ZM79.8781 45.95C83.2981 45.95 85.9265 46.7733 87.7631 48.42C89.5998 50.0667 90.5181 52.3783 90.5181 55.355C90.5181 58.3317 89.5998 60.6433 87.7631 62.29C85.9265 63.9367 83.2981 64.76 79.8781 64.76C76.5848 64.76 73.9881 63.9367 72.0881 62.29C70.1881 60.6433 69.2381 58.3317 69.2381 55.355C69.2381 52.3783 70.1881 50.0667 72.0881 48.42C73.9881 46.7733 76.5848 45.95 79.8781 45.95ZM126.379 0.349998C132.902 0.349998 138.476 1.64833 143.099 4.245C147.786 6.77833 151.364 10.4517 153.834 15.265C156.367 20.0783 157.634 25.8733 157.634 32.65C157.634 39.4267 156.367 45.2217 153.834 50.035C151.364 54.8483 147.786 58.5533 143.099 61.15C138.476 63.6833 132.902 64.95 126.379 64.95C119.919 64.95 114.314 63.6833 109.564 61.15C104.877 58.5533 101.267 54.8483 98.7342 50.035C96.2008 45.2217 94.9342 39.4267 94.9342 32.65C94.9342 25.8733 96.2008 20.0783 98.7342 15.265C101.267 10.4517 104.877 6.77833 109.564 4.245C114.314 1.64833 119.919 0.349998 126.379 0.349998ZM126.379 15.17C123.782 15.17 121.629 15.835 119.919 17.165C118.272 18.4317 117.006 20.3317 116.119 22.865C115.296 25.3983 114.884 28.66 114.884 32.65C114.884 36.5767 115.296 39.8383 116.119 42.435C117.006 44.9683 118.272 46.9 119.919 48.23C121.629 49.4967 123.782 50.13 126.379 50.13C128.912 50.13 131.034 49.4967 132.744 48.23C134.454 46.9 135.721 44.9683 136.544 42.435C137.367 39.8383 137.779 36.5767 137.779 32.65C137.779 28.66 137.367 25.3983 136.544 22.865C135.721 20.3317 134.454 18.4317 132.744 17.165C131.034 15.835 128.912 15.17 126.379 15.17ZM172.744 45.95C176.164 45.95 178.793 46.7733 180.629 48.42C182.466 50.0667 183.384 52.3783 183.384 55.355C183.384 58.3317 182.466 60.6433 180.629 62.29C178.793 63.9367 176.164 64.76 172.744 64.76C169.451 64.76 166.854 63.9367 164.954 62.29C163.054 60.6433 162.104 58.3317 162.104 55.355C162.104 52.3783 163.054 50.0667 164.954 48.42C166.854 46.7733 169.451 45.95 172.744 45.95ZM254.748 64H234.798L231.283 50.985H212.188L208.578 64H189.198L210.288 1.3H233.563L254.748 64ZM215.418 38.445H228.148L221.783 15.075L215.418 38.445ZM271.084 45.95C274.504 45.95 277.133 46.7733 278.969 48.42C280.806 50.0667 281.724 52.3783 281.724 55.355C281.724 58.3317 280.806 60.6433 278.969 62.29C277.133 63.9367 274.504 64.76 271.084 64.76C267.791 64.76 265.194 63.9367 263.294 62.29C261.394 60.6433 260.444 58.3317 260.444 55.355C260.444 52.3783 261.394 50.0667 263.294 48.42C265.194 46.7733 267.791 45.95 271.084 45.95ZM334.075 1.3V15.835H314.125V64H294.745V15.835H274.605V1.3H334.075ZM337.603 45.95C341.023 45.95 343.651 46.7733 345.488 48.42C347.324 50.0667 348.243 52.3783 348.243 55.355C348.243 58.3317 347.324 60.6433 345.488 62.29C343.651 63.9367 341.023 64.76 337.603 64.76C334.309 64.76 331.713 63.9367 329.813 62.29C327.913 60.6433 326.963 58.3317 326.963 55.355C326.963 52.3783 327.913 50.0667 329.813 48.42C331.713 46.7733 334.309 45.95 337.603 45.95Z" fill="url(#paint0_linear_61_255)"/>
<defs>
<linearGradient id="paint0_linear_61_255" x1="174.5" y1="-24" x2="174.5" y2="87" gradientUnits="userSpaceOnUse">
<stop stop-color="#F948B2"/>
<stop offset="1" stop-color="#8758F1"/>
</linearGradient>
</defs>
</svg>
